<?xml version="1.0" encoding="UTF-8" standalone="no"?>
<!DOCTYPE svg PUBLIC "-//W3C//DTD SVG 1.1//EN"
 "http://www.w3.org/Graphics/SVG/1.1/DTD/svg11.dtd">
<!-- Generated by graphviz version 2.43.0 (0)
 -->
<!-- Title: %3 Pages: 1 -->
<svg width="461pt" height="206pt"
 viewBox="0.00 0.00 461.00 206.00" xmlns="http://www.w3.org/2000/svg" xmlns:xlink="http://www.w3.org/1999/xlink">
<g id="graph0" class="graph" transform="scale(1 1) rotate(0) translate(4 202)">
<title>%3</title>
<polygon fill="#242424" stroke="transparent" points="-4,4 -4,-202 457,-202 457,4 -4,4"/>
<!-- cli -->
<g id="node1" class="node">
<title>cli</title>
<polygon fill="#343434" stroke="#343434" points="101.5,-36 47.5,-36 47.5,0 101.5,0 101.5,-36"/>
<text text-anchor="middle" x="74.5" y="-14.3" font-family="Courier,monospace" font-size="14.00" fill="#b6ecf3">cli</text>
</g>
<!-- yoneda.basic -->
<g id="node2" class="node">
<title>yoneda.basic</title>
<polygon fill="#343434" stroke="#343434" points="453,-171 337,-171 337,-135 453,-135 453,-171"/>
<text text-anchor="middle" x="395" y="-149.3" font-family="Courier,monospace" font-size="14.00" fill="#b6ecf3">yoneda.basic</text>
</g>
<!-- yoneda.monad -->
<g id="node3" class="node">
<title>yoneda.monad</title>
<polygon fill="#343434" stroke="#343434" points="301,-148 185,-148 185,-112 301,-112 301,-148"/>
<text text-anchor="middle" x="243" y="-126.3" font-family="Courier,monospace" font-size="14.00" fill="#b6ecf3">yoneda.monad</text>
</g>
<!-- yoneda.monad&#45;&gt;yoneda.basic -->
<g id="edge1" class="edge">
<title>yoneda.monad&#45;&gt;yoneda.basic</title>
<path fill="none" stroke="#b6ecf3" d="M301.14,-138.76C309.47,-140.04 318.11,-141.36 326.62,-142.67"/>
<polygon fill="#b6ecf3" stroke="#b6ecf3" points="326.11,-146.13 336.53,-144.19 327.17,-139.21 326.11,-146.13"/>
</g>
<!-- yoneda -->
<g id="node4" class="node">
<title>yoneda</title>
<polygon fill="#343434" stroke="#343434" points="107.5,-198 41.5,-198 41.5,-162 107.5,-162 107.5,-198"/>
<text text-anchor="middle" x="74.5" y="-176.3" font-family="Courier,monospace" font-size="14.00" fill="#a0d17b">yoneda</text>
</g>
<!-- yoneda&#45;&gt;yoneda.basic -->
<g id="edge2" class="edge">
<title>yoneda&#45;&gt;yoneda.basic</title>
<path fill="none" stroke="#a0d17b" d="M107.79,-177.26C158.86,-172.93 259.36,-164.41 326.63,-158.71"/>
<polygon fill="#a0d17b" stroke="#a0d17b" points="327.04,-162.19 336.71,-157.86 326.45,-155.21 327.04,-162.19"/>
</g>
<!-- yoneda&#45;&gt;yoneda.monad -->
<g id="edge3" class="edge">
<title>yoneda&#45;&gt;yoneda.monad</title>
<path fill="none" stroke="#a0d17b" d="M107.6,-170.36C126.7,-164.62 151.67,-157.13 174.89,-150.15"/>
<polygon fill="#a0d17b" stroke="#a0d17b" points="176.14,-153.43 184.71,-147.2 174.13,-146.73 176.14,-153.43"/>
</g>
<!-- infix -->
<g id="node5" class="node">
<title>infix</title>
<polygon fill="#343434" stroke="#343434" points="103.5,-144 45.5,-144 45.5,-108 103.5,-108 103.5,-144"/>
<text text-anchor="middle" x="74.5" y="-122.3" font-family="Courier,monospace" font-size="14.00" fill="#de958e">infix</text>
</g>
<!-- infix&#45;&gt;yoneda.monad -->
<g id="edge4" class="edge">
<title>infix&#45;&gt;yoneda.monad</title>
<path fill="none" stroke="#de958e" d="M103.74,-126.68C123.23,-127.15 150,-127.79 174.8,-128.39"/>
<polygon fill="#de958e" stroke="#de958e" points="174.83,-131.89 184.91,-128.63 175,-124.89 174.83,-131.89"/>
</g>
<!-- lunchbox.enforce -->
<g id="node6" class="node">
<title>lunchbox.enforce</title>
<polygon fill="#343434" stroke="#343434" points="149,-90 0,-90 0,-54 149,-54 149,-90"/>
<text text-anchor="middle" x="74.5" y="-68.3" font-family="Courier,monospace" font-size="14.00" fill="#de958e">lunchbox.enforce</text>
</g>
<!-- lunchbox.enforce&#45;&gt;yoneda.monad -->
<g id="edge5" class="edge">
<title>lunchbox.enforce&#45;&gt;yoneda.monad</title>
<path fill="none" stroke="#de958e" d="M127.27,-90.03C144.18,-95.93 163.13,-102.53 180.68,-108.64"/>
<polygon fill="#de958e" stroke="#de958e" points="179.67,-111.99 190.26,-111.98 181.97,-105.38 179.67,-111.99"/>
</g>
</g>
</svg>
