<?xml version="1.0" encoding="UTF-8" standalone="no"?>
<!DOCTYPE svg PUBLIC "-//W3C//DTD SVG 1.1//EN"
 "http://www.w3.org/Graphics/SVG/1.1/DTD/svg11.dtd">
<!-- Generated by graphviz version 2.43.0 (0)
 -->
<!-- Title: %3 Pages: 1 -->
<svg width="461pt" height="227pt"
 viewBox="0.00 0.00 461.00 226.52" xmlns="http://www.w3.org/2000/svg" xmlns:xlink="http://www.w3.org/1999/xlink">
<g id="graph0" class="graph" transform="scale(1 1) rotate(0) translate(4 222.52)">
<title>%3</title>
<polygon fill="#242424" stroke="transparent" points="-4,4 -4,-222.52 457,-222.52 457,4 -4,4"/>
<!-- cli -->
<g id="node1" class="node">
<title>cli</title>
<polygon fill="#343434" stroke="#343434" points="101.5,-36 47.5,-36 47.5,0 101.5,0 101.5,-36"/>
<text text-anchor="middle" x="74.5" y="-14.3" font-family="Courier,monospace" font-size="14.00" fill="#b6ecf3">cli</text>
</g>
<!-- yoneda.basic -->
<g id="node2" class="node">
<title>yoneda.basic</title>
<polygon fill="#343434" stroke="#343434" points="453,-144 337,-144 337,-108 453,-108 453,-144"/>
<text text-anchor="middle" x="395" y="-122.3" font-family="Courier,monospace" font-size="14.00" fill="#b6ecf3">yoneda.basic</text>
</g>
<!-- yoneda.monad -->
<g id="node3" class="node">
<title>yoneda.monad</title>
<polygon fill="#343434" stroke="#343434" points="301,-144 185,-144 185,-108 301,-108 301,-144"/>
<text text-anchor="middle" x="243" y="-122.3" font-family="Courier,monospace" font-size="14.00" fill="#b6ecf3">yoneda.monad</text>
</g>
<!-- yoneda.monad&#45;&gt;yoneda.basic -->
<g id="edge1" class="edge">
<title>yoneda.monad&#45;&gt;yoneda.basic</title>
<path fill="none" stroke="#b6ecf3" d="M301.14,-126C309.38,-126 317.92,-126 326.34,-126"/>
<polygon fill="#b6ecf3" stroke="#b6ecf3" points="326.53,-129.5 336.53,-126 326.53,-122.5 326.53,-129.5"/>
</g>
<!-- yoneda.tools -->
<g id="node4" class="node">
<title>yoneda.tools</title>
<polygon fill="#343434" stroke="#343434" points="301,-198 185,-198 185,-162 301,-162 301,-198"/>
<text text-anchor="middle" x="243" y="-176.3" font-family="Courier,monospace" font-size="14.00" fill="#b6ecf3">yoneda.tools</text>
</g>
<!-- yoneda -->
<g id="node5" class="node">
<title>yoneda</title>
<polygon fill="#343434" stroke="#343434" points="107.5,-198 41.5,-198 41.5,-162 107.5,-162 107.5,-198"/>
<text text-anchor="middle" x="74.5" y="-176.3" font-family="Courier,monospace" font-size="14.00" fill="#a0d17b">yoneda</text>
</g>
<!-- yoneda&#45;&gt;yoneda.basic -->
<g id="edge2" class="edge">
<title>yoneda&#45;&gt;yoneda.basic</title>
<path fill="none" stroke="#a0d17b" d="M107.62,-192.98C152.4,-209.07 235.46,-231.54 301,-207 330.43,-195.98 356.69,-170.97 373.73,-151.63"/>
<polygon fill="#a0d17b" stroke="#a0d17b" points="376.4,-153.89 380.24,-144.02 371.08,-149.35 376.4,-153.89"/>
</g>
<!-- yoneda&#45;&gt;yoneda.monad -->
<g id="edge3" class="edge">
<title>yoneda&#45;&gt;yoneda.monad</title>
<path fill="none" stroke="#a0d17b" d="M107.6,-169.59C127.2,-163.23 152.98,-154.87 176.71,-147.17"/>
<polygon fill="#a0d17b" stroke="#a0d17b" points="177.95,-150.45 186.38,-144.04 175.79,-143.79 177.95,-150.45"/>
</g>
<!-- yoneda&#45;&gt;yoneda.tools -->
<g id="edge4" class="edge">
<title>yoneda&#45;&gt;yoneda.tools</title>
<path fill="none" stroke="#a0d17b" d="M107.6,-180C126.62,-180 151.45,-180 174.58,-180"/>
<polygon fill="#a0d17b" stroke="#a0d17b" points="174.71,-183.5 184.71,-180 174.71,-176.5 174.71,-183.5"/>
</g>
<!-- infix -->
<g id="node6" class="node">
<title>infix</title>
<polygon fill="#343434" stroke="#343434" points="103.5,-144 45.5,-144 45.5,-108 103.5,-108 103.5,-144"/>
<text text-anchor="middle" x="74.5" y="-122.3" font-family="Courier,monospace" font-size="14.00" fill="#de958e">infix</text>
</g>
<!-- infix&#45;&gt;yoneda.monad -->
<g id="edge5" class="edge">
<title>infix&#45;&gt;yoneda.monad</title>
<path fill="none" stroke="#de958e" d="M103.74,-126C123.23,-126 150,-126 174.8,-126"/>
<polygon fill="#de958e" stroke="#de958e" points="174.91,-129.5 184.91,-126 174.91,-122.5 174.91,-129.5"/>
</g>
<!-- lunchbox.enforce -->
<g id="node7" class="node">
<title>lunchbox.enforce</title>
<polygon fill="#343434" stroke="#343434" points="149,-90 0,-90 0,-54 149,-54 149,-90"/>
<text text-anchor="middle" x="74.5" y="-68.3" font-family="Courier,monospace" font-size="14.00" fill="#de958e">lunchbox.enforce</text>
</g>
<!-- lunchbox.enforce&#45;&gt;yoneda.monad -->
<g id="edge6" class="edge">
<title>lunchbox.enforce&#45;&gt;yoneda.monad</title>
<path fill="none" stroke="#de958e" d="M131.41,-90.13C145.9,-94.83 161.63,-99.93 176.57,-104.78"/>
<polygon fill="#de958e" stroke="#de958e" points="175.65,-108.16 186.24,-107.92 177.81,-101.5 175.65,-108.16"/>
</g>
<!-- pandas -->
<g id="node8" class="node">
<title>pandas</title>
<polygon fill="#343434" stroke="#343434" points="276,-90 210,-90 210,-54 276,-54 276,-90"/>
<text text-anchor="middle" x="243" y="-68.3" font-family="Courier,monospace" font-size="14.00" fill="#de958e">pandas</text>
</g>
<!-- pandas&#45;&gt;yoneda.basic -->
<g id="edge7" class="edge">
<title>pandas&#45;&gt;yoneda.basic</title>
<path fill="none" stroke="#de958e" d="M276.18,-83.58C293.12,-89.68 314.44,-97.36 334.28,-104.5"/>
<polygon fill="#de958e" stroke="#de958e" points="333.28,-107.86 343.87,-107.95 335.65,-101.27 333.28,-107.86"/>
</g>
</g>
</svg>
